<?xml version="1.0" encoding="UTF-8"?>
<svg width="14px" height="14px" viewBox="0 0 14 14" version="1.1" xmlns="http://www.w3.org/2000/svg" xmlns:xlink="http://www.w3.org/1999/xlink">
    <!-- Generator: Sketch 63.1 (92452) - https://sketch.com -->
    <title>button-close</title>
    <desc>Created with Sketch.</desc>
    <defs>
        <path d="M13.2928932,13.2928932 C13.6834175,12.9023689 14.3165825,12.9023689 14.7071068,13.2928932 L14.7071068,13.2928932 L20,18.585 L25.2928932,13.2928932 C25.6533772,12.9324093 26.2206082,12.9046797 26.6128994,13.2097046 L26.7071068,13.2928932 C27.0976311,13.6834175 27.0976311,14.3165825 26.7071068,14.7071068 L26.7071068,14.7071068 L21.415,20 L26.7071068,25.2928932 C27.0675907,25.6533772 27.0953203,26.2206082 26.7902954,26.6128994 L26.7071068,26.7071068 C26.3165825,27.0976311 25.6834175,27.0976311 25.2928932,26.7071068 L25.2928932,26.7071068 L20,21.415 L14.7071068,26.7071068 C14.3466228,27.0675907 13.7793918,27.0953203 13.3871006,26.7902954 L13.2928932,26.7071068 C12.9023689,26.3165825 12.9023689,25.6834175 13.2928932,25.2928932 L13.2928932,25.2928932 L18.585,20 L13.2928932,14.7071068 C12.9324093,14.3466228 12.9046797,13.7793918 13.2097046,13.3871006 Z" id="path-1"></path>
    </defs>
    <g id="GIFOS" stroke="none" stroke-width="1" fill="none" fill-rule="evenodd">
        <g id="00-UI-Kit" transform="translate(-189.000000, -2871.000000)">
            <g id="Button-Slider-right" transform="translate(176.000000, 2858.000000)">
                <mask id="mask-2" fill="white">
                    <use xlink:href="#path-1"></use>
                </mask>
                <use id="button-close" fill="#572EE5" fill-rule="nonzero" xlink:href="#path-1"></use>
            </g>
        </g>
    </g>
</svg>