<?xml version="1.0" encoding="UTF-8"?>
<svg width="20px" height="10px" viewBox="0 0 20 10" version="1.1" xmlns="http://www.w3.org/2000/svg" xmlns:xlink="http://www.w3.org/1999/xlink">
    <!-- Generator: Sketch 63.1 (92452) - https://sketch.com -->
    <title>icon-link</title>
    <desc>Created with Sketch.</desc>
    <defs>
        <path d="M12.5,1.66666667 L15,1.66666667 C15.884055,1.66666667 16.7319013,2.01785613 17.3570226,2.6429774 C17.9821439,3.26809866 18.3333333,4.11594503 18.3333333,5 C18.3333333,6.84094917 16.8409492,8.33333333 15,8.33333333 L12.5,8.33333333 C12.0397627,8.33333333 11.6666667,8.70642938 11.6666667,9.16666667 C11.6666667,9.62690396 12.0397627,10 12.5,10 L15,10 C17.7614237,10 20,7.76142375 20,5 C20,3.67391755 19.4732158,2.40214799 18.5355339,1.46446609 C17.597852,0.526784202 16.3260824,0 15,0 L12.5,0 C12.0397627,0 11.6666667,0.373096042 11.6666667,0.833333333 C11.6666667,1.29357062 12.0397627,1.66666667 12.5,1.66666667 Z M7.5,1.77635684e-15 C7.96023729,1.77635684e-15 8.33333333,0.373096042 8.33333333,0.833333333 C8.33333333,1.29357062 7.96023729,1.66666667 7.5,1.66666667 L7.5,1.66666667 L5,1.66666667 C3.15905083,1.66666667 1.66666667,3.15905083 1.66666667,5 C1.66666667,5.88405497 2.01785613,6.73190134 2.6429774,7.3570226 C3.26809866,7.98214387 4.11594503,8.33333333 5,8.33333333 L5,8.33333333 L7.5,8.33333333 C7.96023729,8.33333333 8.33333333,8.70642938 8.33333333,9.16666667 C8.33333333,9.62690396 7.96023729,10 7.5,10 L7.5,10 L5,10 C3.67391755,10 2.40214799,9.4732158 1.46446609,8.53553391 C0.526784202,7.59785201 0,6.32608245 0,5 C0,2.23857625 2.23857625,1.77635684e-15 5,1.77635684e-15 L5,1.77635684e-15 Z M13.3333333,4.16666667 C13.7935706,4.16666667 14.1666667,4.53976271 14.1666667,5 C14.1666667,5.46023729 13.7935706,5.83333333 13.3333333,5.83333333 L13.3333333,5.83333333 L6.66666667,5.83333333 C6.20642938,5.83333333 5.83333333,5.46023729 5.83333333,5 C5.83333333,4.53976271 6.20642938,4.16666667 6.66666667,4.16666667 L6.66666667,4.16666667 Z" id="path-1"></path>
    </defs>
    <g id="GIFOS" stroke="none" stroke-width="1" fill="none" fill-rule="evenodd">
        <g id="00-UI-Kit" transform="translate(-864.000000, -2956.000000)">
            <g id="icon-link-hover" transform="translate(858.000000, 2945.000000)">
                <g id="icon-link" transform="translate(6.000000, 11.000000)">
                    <mask id="mask-2" fill="white">
                        <use xlink:href="#path-1"></use>
                    </mask>
                    <use id="Combined-Shape" fill="#572EE5" fill-rule="nonzero" xlink:href="#path-1"></use>
                </g>
            </g>
        </g>
    </g>
</svg>