<?xml version="1.0" encoding="UTF-8"?>
<svg width="18px" height="16px" viewBox="0 0 18 16" version="1.1" xmlns="http://www.w3.org/2000/svg" xmlns:xlink="http://www.w3.org/1999/xlink">
    <!-- Generator: Sketch 63.1 (92452) - https://sketch.com -->
    <title>icon-fav-hover</title>
    <desc>Created with Sketch.</desc>
    <defs>
        <path d="M874.277005,2786.49709 C875.235099,2785.53854 876.534823,2785 877.89009,2785 C879.245357,2785 880.545081,2785.53854 881.503175,2786.49709 C882.461458,2787.45492 883,2788.75464 883,2790.10991 C883,2791.46518 882.461458,2792.7649 881.503045,2793.72286 L874.555519,2800.67039 C874.248598,2800.97731 873.750982,2800.97731 873.444061,2800.67039 L866.496535,2793.72286 C864.501155,2791.72748 864.501155,2788.49234 866.496535,2786.49696 C868.491915,2784.50158 871.727064,2784.50158 873.722444,2786.49696 L873.99979,2786.7743 L874.277005,2786.49709 Z M873.99979,2799.0032 L879.558513,2793.44448 L880.391718,2792.61128 C881.055325,2791.94798 881.428162,2791.04817 881.428162,2790.10991 C881.428162,2789.17165 881.055325,2788.27184 880.391718,2787.60854 C879.728161,2786.94468 878.828352,2786.57184 877.89009,2786.57184 C876.951828,2786.57184 876.052019,2786.94468 875.388593,2787.60841 L874.555519,2788.44149 C874.248598,2788.74841 873.750982,2788.74841 873.444061,2788.44149 L872.610987,2787.60841 C871.229448,2786.22687 868.989531,2786.22687 867.607993,2787.60841 C866.226454,2788.98995 866.226454,2791.22987 867.607992,2792.61141 L873.99979,2799.0032 Z" id="path-1"></path>
    </defs>
    <g id="GIFOS" stroke="none" stroke-width="1" fill="none" fill-rule="evenodd">
        <g id="00-UI-Kit" transform="translate(-865.000000, -2785.000000)">
            <mask id="mask-2" fill="white">
                <use xlink:href="#path-1"></use>
            </mask>
            <use id="icon-fav-hover" fill="#572EE5" fill-rule="nonzero" xlink:href="#path-1"></use>
        </g>
    </g>
</svg>