<?xml version="1.0" encoding="UTF-8"?>
<svg width="18px" height="18px" viewBox="0 0 18 18" version="1.1" xmlns="http://www.w3.org/2000/svg" xmlns:xlink="http://www.w3.org/1999/xlink">
    <!-- Generator: Sketch 63.1 (92452) - https://sketch.com -->
    <title>icon-max</title>
    <desc>Created with Sketch.</desc>
    <defs>
        <path d="M6.74407768,10.077411 C7.06951459,9.75197411 7.59715207,9.75197411 7.92258898,10.077411 C8.24802589,10.4028479 8.24802589,10.9304854 7.92258898,11.2559223 L7.92258898,11.2559223 L3.51066667,15.6666667 L6.5,15.6666667 C6.92483442,15.6666667 7.27541831,15.984571 7.32684048,16.3954684 L7.33333333,16.5 C7.33333333,16.9602373 6.96023729,17.3333333 6.5,17.3333333 L6.5,17.3333333 L1.5,17.3333333 C1.42735036,17.3333333 1.35687206,17.3240367 1.28968984,17.3065683 C1.28143536,17.3043626 1.2723213,17.3018398 1.26324389,17.2991593 C1.23860114,17.2918998 1.21538669,17.2838495 1.19266315,17.2748285 C1.18074334,17.2701084 1.1682729,17.2648257 1.15591113,17.2592256 C1.13573211,17.2500223 1.11657783,17.2403904 1.09786317,17.2300599 C1.08416136,17.2225839 1.07029411,17.2144138 1.05662247,17.2058082 C1.04099666,17.1958723 1.02608297,17.185781 1.01152389,17.1752303 C0.976351836,17.1498137 0.942580568,17.1210919 0.910744349,17.0892557 L0.976403312,17.1483347 C0.957496434,17.1330463 0.93927177,17.1169477 0.921782126,17.1000917 L0.910744349,17.0892557 C0.906277568,17.0847889 0.901872096,17.080284 0.897527932,17.0757421 C0.883461812,17.061045 0.869529372,17.0453544 0.856196676,17.0291517 C0.844999761,17.0156013 0.83461723,17.0021619 0.82470133,16.9884893 C0.811764791,16.9705393 0.799353968,16.9518947 0.787693808,16.9327428 C0.78245144,16.9242728 0.777337108,16.9155142 0.772395965,16.9066847 C0.704994252,16.786072 0.666666667,16.647512 0.666666667,16.5 L0.666666667,16.5 L0.666666667,11.5 C0.666666667,11.0397627 1.03976271,10.6666667 1.5,10.6666667 C1.96023729,10.6666667 2.33333333,11.0397627 2.33333333,11.5 L2.33333333,11.5 L2.33266667,14.4886667 Z M16.5,0.666666667 C16.5463775,0.666666667 16.5927549,0.670514062 16.6386125,0.678208854 C16.6984379,0.688179006 16.7558467,0.70448539 16.8104015,0.726395262 C16.8163994,0.728808536 16.8221462,0.731188647 16.8278713,0.733635827 C16.8546194,0.745093708 16.8808527,0.758017701 16.9062649,0.772234133 C16.9155142,0.777337108 16.9242728,0.78245144 16.9329556,0.787738961 C16.9518947,0.799353968 16.9705393,0.811764791 16.9886357,0.824885415 C17.0237558,0.850277838 17.0574701,0.878958844 17.0892557,0.910744349 L17.0291517,0.856196676 C17.0453544,0.869529372 17.061045,0.883461812 17.0761896,0.897960043 L17.0892557,0.910744349 C17.0927653,0.914253963 17.096237,0.917787093 17.0996709,0.921343232 C17.1169477,0.93927177 17.1330463,0.957496434 17.1483347,0.976403312 C17.1577247,0.987936709 17.1667514,0.999718929 17.1754211,1.01167956 C17.185781,1.02608297 17.1958723,1.04099666 17.205483,1.05624369 C17.2144138,1.07029411 17.2225839,1.08416136 17.2303184,1.09820441 C17.2403904,1.11657783 17.2500223,1.13573211 17.2589203,1.15529084 C17.2648257,1.1682729 17.2701084,1.18074334 17.2750737,1.19331011 C17.3125814,1.28776116 17.3333333,1.39145714 17.3333333,1.5 L17.3333333,1.5 L17.3333333,6.5 C17.3333333,6.96023729 16.9602373,7.33333333 16.5,7.33333333 C16.0397627,7.33333333 15.6666667,6.96023729 15.6666667,6.5 L15.6666667,6.5 L15.6666667,3.51066667 L11.2559223,7.92258898 C10.9576052,8.22090615 10.4893833,8.24576592 10.1627487,7.99716828 L10.077411,7.92258898 C9.75197411,7.59715207 9.75197411,7.06951459 10.077411,6.74407768 L10.077411,6.74407768 L14.4886667,2.33266667 L11.5,2.33333333 C11.0751656,2.33333333 10.7245817,2.01542901 10.6731595,1.60453156 L10.6666667,1.5 C10.6666667,1.03976271 11.0397627,0.666666667 11.5,0.666666667 L11.5,0.666666667 Z" id="path-1"></path>
    </defs>
    <g id="GIFOS" stroke="none" stroke-width="1" fill="none" fill-rule="evenodd">
        <g id="00-UI-Kit" transform="translate(-865.000000, -2868.000000)">
            <g id="icon-max-hover" transform="translate(858.000000, 2861.000000)">
                <g transform="translate(7.000000, 7.000000)">
                    <mask id="mask-2" fill="white">
                        <use xlink:href="#path-1"></use>
                    </mask>
                    <use id="icon-max" fill="#572EE5" fill-rule="nonzero" xlink:href="#path-1"></use>
                </g>
            </g>
        </g>
    </g>
</svg>