<?xml version="1.0" encoding="UTF-8"?>
<svg width="18px" height="20px" viewBox="0 0 18 20" version="1.1" xmlns="http://www.w3.org/2000/svg" xmlns:xlink="http://www.w3.org/1999/xlink">
    <!-- Generator: Sketch 63.1 (92452) - https://sketch.com -->
    <title>icon_trash</title>
    <desc>Created with Sketch.</desc>
    <defs>
        <path d="M10.6666667,0.833333333 C12.0473785,0.833333333 13.1666667,1.95262146 13.1666667,3.33333333 L13.1666667,3.33333333 L13.1656667,4.16633333 L16.5,4.16666667 C16.9248344,4.16666667 17.2754183,4.48457099 17.3268405,4.89546844 L17.3333333,5 C17.3333333,5.46023729 16.9602373,5.83333333 16.5,5.83333333 L16.5,5.83333333 L15.6656667,5.83333333 L15.6666667,16.6666667 C15.6666667,17.9921501 14.6351307,19.0767053 13.3310424,19.161349 L13.1666667,19.1666667 L4.83333333,19.1666667 C3.45262146,19.1666667 2.33333333,18.0473785 2.33333333,16.6666667 L2.33333333,16.6666667 L2.33266667,5.83333333 L1.5,5.83333333 C1.07516558,5.83333333 0.724581686,5.51542901 0.673159516,5.10453156 L0.666666667,5 C0.666666667,4.53976271 1.03976271,4.16666667 1.5,4.16666667 L1.5,4.16666667 L4.83266667,4.16633333 L4.83333333,3.33333333 C4.83333333,2.00784993 5.86486927,0.923294661 7.16895765,0.838651013 L7.33333333,0.833333333 Z M13.9996667,5.83333333 L3.99966667,5.83333333 L4,16.6666667 C4,17.0915011 4.31790432,17.442085 4.72880177,17.4935072 L4.83333333,17.5 L13.1666667,17.5 C13.626904,17.5 14,17.126904 14,16.6666667 L14,16.6666667 L13.9996667,5.83333333 Z M10.6666667,2.5 L7.33333333,2.5 C6.87309604,2.5 6.5,2.87309604 6.5,3.33333333 L6.5,3.33333333 L6.49966667,4.16633333 L11.4996667,4.16633333 L11.5,3.33333333 C11.5,2.90849891 11.1820957,2.55791502 10.7711982,2.50649285 L10.6666667,2.5 Z" id="path-1"></path>
    </defs>
    <g id="GIFOS" stroke="none" stroke-width="1" fill="none" fill-rule="evenodd">
        <g id="00-UI-Kit" transform="translate(-865.000000, -2909.000000)">
            <g id="icon-trash-hover" transform="translate(858.000000, 2903.000000)">
                <g id="icon_trash" transform="translate(7.000000, 6.000000)">
                    <mask id="mask-2" fill="white">
                        <use xlink:href="#path-1"></use>
                    </mask>
                    <use fill="#572EE5" fill-rule="nonzero" xlink:href="#path-1"></use>
                </g>
            </g>
        </g>
    </g>
</svg>