<?xml version="1.0" encoding="UTF-8"?>
<svg width="18px" height="18px" viewBox="0 0 18 18" version="1.1" xmlns="http://www.w3.org/2000/svg" xmlns:xlink="http://www.w3.org/1999/xlink">
    <!-- Generator: Sketch 63.1 (92452) - https://sketch.com -->
    <title>icon_instagram</title>
    <desc>Created with Sketch.</desc>
    <g id="GIFOS" stroke="none" stroke-width="1" fill="none" fill-rule="evenodd">
        <g id="00-UI-Kit" transform="translate(-1095.000000, -2779.000000)">
            <g id="Footer" transform="translate(328.000000, 1736.000000)">
                <g id="icon_instagram" transform="translate(766.000000, 1042.000000)">
                    <rect id="Rectangle-Copy-2" x="0" y="0" width="20" height="20"></rect>
                    <path d="M9.56975248,2.62163636 C11.8578764,2.62163636 12.1289922,2.63063636 13.0327116,2.674 C13.8682624,2.71409091 14.3220698,2.86095455 14.6239588,2.98409091 C15.0240104,3.14731818 15.309539,3.34245455 15.6094803,3.65704545 C15.9090321,3.97204545 16.0948399,4.27190909 16.2502641,4.69204545 C16.3675139,5.00909091 16.5073566,5.48568182 16.545531,6.36318182 C16.5868216,7.31227273 16.5953914,7.597 16.5953914,10 C16.5953914,12.403 16.5868216,12.6877273 16.545531,13.6368182 C16.5073566,14.5143182 16.3675139,14.9909091 16.2502641,15.3079545 C16.0948399,15.7280909 15.9090321,16.0279545 15.6094803,16.3429545 C15.309539,16.6575455 15.0240104,16.8526818 14.6239588,17.0159091 C14.3220698,17.1394545 13.8682624,17.2859091 13.0327116,17.326 C12.1289922,17.3693636 11.8582659,17.3783636 9.56975248,17.3783636 C7.28123903,17.3783636 7.01051276,17.3693636 6.10679341,17.326 C5.27124254,17.2859091 4.8174352,17.1394545 4.51554619,17.0159091 C4.11549456,16.8526818 3.82996599,16.6575455 3.53002465,16.3429545 C3.23047285,16.0279545 3.04466504,15.7280909 2.88924089,15.3079545 C2.77160156,14.9909091 2.63214831,14.5143182 2.59397396,13.6368182 C2.55268334,12.6877273 2.54411358,12.403 2.54411358,10 C2.54411358,7.597 2.55268334,7.31227273 2.59397396,6.36318182 C2.63214831,5.48568182 2.77160156,5.00909091 2.88924089,4.69204545 C3.04466504,4.27190909 3.23047285,3.97204545 3.53002465,3.65704545 C3.82996599,3.34245455 4.11549456,3.14731818 4.51554619,2.98409091 C4.8174352,2.86095455 5.27124254,2.71409091 6.10679341,2.674 C7.01051276,2.63063636 7.28162857,2.62163636 9.56975248,2.62163636 L9.56975248,2.62163636 Z M9.56975248,1 C7.24228561,1 6.9505245,1.01022727 6.03628772,1.054 C5.12438815,1.09777273 4.50152296,1.24995455 3.95617507,1.4725 C3.39251908,1.70240909 2.91456061,2.01004545 2.43816028,2.51036364 C1.96175995,3.01109091 1.66883023,3.51263636 1.44991201,4.10459091 C1.2380054,4.67731818 1.09309867,5.33145455 1.05141851,6.28913636 C1.00973836,7.24927273 1,7.55568182 1,10 C1,12.4443182 1.00973836,12.7507273 1.05141851,13.7108636 C1.09309867,14.6685455 1.2380054,15.3226818 1.44991201,15.8954091 C1.66883023,16.4873636 1.96175995,16.9889091 2.43816028,17.4892273 C2.91456061,17.9899545 3.39251908,18.2975909 3.95617507,18.5275 C4.50152296,18.7500455 5.12438815,18.9022273 6.03628772,18.946 C6.9505245,18.9897727 7.24228561,19 9.56975248,19 C11.8972193,19 12.1889805,18.9897727 13.1028277,18.946 C14.0151168,18.9022273 14.637982,18.7500455 15.1833299,18.5275 C15.7469859,18.2975909 16.2245548,17.9899545 16.7009551,17.4892273 C17.177745,16.9889091 17.4706747,16.4873636 17.689593,15.8954091 C17.9014996,15.3226818 18.0464063,14.6685455 18.0880864,13.7108636 C18.1297666,12.7507273 18.139505,12.4443182 18.139505,10 C18.139505,7.55568182 18.1297666,7.24927273 18.0880864,6.28913636 C18.0464063,5.33145455 17.9014996,4.67731818 17.689593,4.10459091 C17.4706747,3.51263636 17.177745,3.01109091 16.7009551,2.51036364 C16.2245548,2.01004545 15.7469859,1.70240909 15.1833299,1.4725 C14.637982,1.24995455 14.0151168,1.09777273 13.1028277,1.054 C12.1889805,1.01022727 11.8972193,1 9.56975248,1 L9.56975248,1 Z M9.58689199,5.39281818 C7.15464042,5.39281818 5.18281828,7.46363636 5.18281828,10.018 C5.18281828,12.5719545 7.15464042,14.6427727 9.58689199,14.6427727 C12.018754,14.6427727 13.9905762,12.5719545 13.9905762,10.018 C13.9905762,7.46363636 12.018754,5.39281818 9.58689199,5.39281818 L9.58689199,5.39281818 Z M9.58689199,13.0199091 C8.00810986,13.0199091 6.72810046,11.6760455 6.72810046,10.018 C6.72810046,8.35995455 8.00810986,7.01568182 9.58689199,7.01568182 C11.1656741,7.01568182 12.445294,8.35995455 12.445294,10.018 C12.445294,11.6760455 11.1656741,13.0199091 9.58689199,13.0199091 L9.58689199,13.0199091 Z M15.1467137,5.17845455 C15.1467137,5.77040909 14.6901796,6.24986364 14.1265236,6.24986364 C13.5632571,6.24986364 13.1063335,5.77040909 13.1063335,5.17845455 C13.1063335,4.58690909 13.5632571,4.10704545 14.1265236,4.10704545 C14.6901796,4.10704545 15.1467137,4.58690909 15.1467137,5.17845455 L15.1467137,5.17845455 Z" id="Clip-19" fill="#CDD6E0"></path>
                    <rect id="Rectangle" x="0" y="0" width="20" height="20"></rect>
                </g>
            </g>
        </g>
    </g>
</svg>