<?xml version="1.0" encoding="UTF-8"?>
<svg width="24px" height="24px" viewBox="0 0 24 24" version="1.1" xmlns="http://www.w3.org/2000/svg" xmlns:xlink="http://www.w3.org/1999/xlink">
    <!-- Generator: Sketch 63.1 (92452) - https://sketch.com -->
    <title>loader</title>
    <desc>Created with Sketch.</desc>
    <defs>
        <path d="M12,17.4545455 C12.6024925,17.4545455 13.0909091,17.9429621 13.0909091,18.5454545 L13.0909091,18.5454545 L13.0909091,22.9090909 C13.0909091,23.5115834 12.6024925,24 12,24 C11.3975075,24 10.9090909,23.5115834 10.9090909,22.9090909 L10.9090909,22.9090909 L10.9090909,18.5454545 C10.9090909,17.9429621 11.3975075,17.4545455 12,17.4545455 Z M15.8540653,15.8540653 C16.2800918,15.4280388 16.9708173,15.4280388 17.3968438,15.8540653 L17.3968438,15.8540653 L20.4841165,18.9413381 C20.910143,19.3673646 20.910143,20.05809 20.4841165,20.4841165 C20.05809,20.910143 19.3673646,20.910143 18.9413381,20.4841165 L18.9413381,20.4841165 L15.8540653,17.3968438 C15.4280388,16.9708173 15.4280388,16.2800918 15.8540653,15.8540653 Z M6.60315624,15.8540653 C7.02918274,15.4280388 7.71990817,15.4280388 8.14593467,15.8540653 C8.57196117,16.2800918 8.57196117,16.9708173 8.14593467,17.3968438 L8.14593467,17.3968438 L5.05866194,20.4841165 C4.63263544,20.910143 3.94191001,20.910143 3.51588351,20.4841165 C3.08985701,20.05809 3.08985701,19.3673646 3.51588351,18.9413381 L3.51588351,18.9413381 Z M5.45454545,10.9090909 C6.05703791,10.9090909 6.54545455,11.3975075 6.54545455,12 C6.54545455,12.6024925 6.05703791,13.0909091 5.45454545,13.0909091 L5.45454545,13.0909091 L1.09090909,13.0909091 C0.488416637,13.0909091 0,12.6024925 0,12 C0,11.3975075 0.488416637,10.9090909 1.09090909,10.9090909 L1.09090909,10.9090909 Z M22.9090909,10.9090909 C23.5115834,10.9090909 24,11.3975075 24,12 C24,12.6024925 23.5115834,13.0909091 22.9090909,13.0909091 L22.9090909,13.0909091 L18.5454545,13.0909091 C17.9429621,13.0909091 17.4545455,12.6024925 17.4545455,12 C17.4545455,11.3975075 17.9429621,10.9090909 18.5454545,10.9090909 L18.5454545,10.9090909 Z M3.51588351,3.51588351 C3.94191001,3.08985701 4.63263544,3.08985701 5.05866194,3.51588351 L5.05866194,3.51588351 L8.14593467,6.60315624 C8.57196117,7.02918274 8.57196117,7.71990817 8.14593467,8.14593467 C7.71990817,8.57196117 7.02918274,8.57196117 6.60315624,8.14593467 L6.60315624,8.14593467 L3.51588351,5.05866194 C3.08985701,4.63263544 3.08985701,3.94191001 3.51588351,3.51588351 Z M18.9413381,3.51588351 C19.3673646,3.08985701 20.05809,3.08985701 20.4841165,3.51588351 C20.910143,3.94191001 20.910143,4.63263544 20.4841165,5.05866194 L20.4841165,5.05866194 L17.3968438,8.14593467 C16.9708173,8.57196117 16.2800918,8.57196117 15.8540653,8.14593467 C15.4280388,7.71990817 15.4280388,7.02918274 15.8540653,6.60315624 L15.8540653,6.60315624 Z M12,0 C12.6024925,0 13.0909091,0.488416637 13.0909091,1.09090909 L13.0909091,1.09090909 L13.0909091,5.45454545 C13.0909091,6.05703791 12.6024925,6.54545455 12,6.54545455 C11.3975075,6.54545455 10.9090909,6.05703791 10.9090909,5.45454545 L10.9090909,5.45454545 L10.9090909,1.09090909 C10.9090909,0.488416637 11.3975075,0 12,0 Z" id="path-1"></path>
    </defs>
    <g id="GIFOS" stroke="none" stroke-width="1" fill="none" fill-rule="evenodd">
        <g id="00-UI-Kit" transform="translate(-666.000000, -2855.000000)">
            <g id="loader" transform="translate(666.000000, 2855.000000)">
                <mask id="mask-2" fill="white">
                    <use xlink:href="#path-1"></use>
                </mask>
                <use id="Combined-Shape" fill="#50E3C2" fill-rule="nonzero" xlink:href="#path-1"></use>
            </g>
        </g>
    </g>
</svg>